HIERARCHY
ROOT Bip001_Pelvis
{
  OFFSET 33.2923 95.8902 -28.781
  CHANNELS 6 Xposition Yposition Zposition Zrotation Xrotation Yrotation
  JOINT Bip001_Spine
  {
    OFFSET 1.4188e-005 10.2191 -0.0116013
    CHANNELS 3 Zrotation Xrotation Yrotation
    JOINT Bip001_L_Thigh
    {
      OFFSET 11.0458 -10.2192 0.0116197
      CHANNELS 3 Zrotation Xrotation Yrotation
      JOINT Bip001_L_Calf
      {
        OFFSET -0.707118 -44.0221 0.360014
        CHANNELS 3 Zrotation Xrotation Yrotation
        JOINT Bip001_L_Foot
        {
          OFFSET -0.651902 -40.5938 -3.56146
          CHANNELS 3 Zrotation Xrotation Yrotation
          JOINT Bip001_L_Toe0
          {
            OFFSET 0.0530839 -10.2181 13.1504
            CHANNELS 3 Zrotation Xrotation Yrotation
            End Site
            {
              OFFSET -1.02532e-005 0 7.55606
            }
          }
        }
      }
    }
    JOINT Bip001_R_Thigh
    {
      OFFSET -11.0458 -10.2191 0.0115893
      CHANNELS 3 Zrotation Xrotation Yrotation
      JOINT Bip001_R_Calf
      {
        OFFSET 0.706994 -44.0221 0.35984
        CHANNELS 3 Zrotation Xrotation Yrotation
        JOINT Bip001_R_Foot
        {
          OFFSET 0.651786 -40.5938 -3.5613
          CHANNELS 3 Zrotation Xrotation Yrotation
          JOINT Bip001_R_Toe0
          {
            OFFSET -0.0531479 -10.2181 13.1504
            CHANNELS 3 Zrotation Xrotation Yrotation
            End Site
            {
              OFFSET -1.02894e-005 0 7.55606
            }
          }
        }
      }
    }
    JOINT Bip001_Spine1
    {
      OFFSET 1.87041e-005 14.5736 1.08638
      CHANNELS 3 Zrotation Xrotation Yrotation
      JOINT Bip001_Spine2
      {
        OFFSET 2.24614e-005 14.5058 -1.69078
        CHANNELS 3 Zrotation Xrotation Yrotation
        JOINT Bip001_Neck
        {
          OFFSET 2.20278e-005 15.3945 -0.489414
          CHANNELS 3 Zrotation Xrotation Yrotation
          JOINT Bip001_L_Clavicle
          {
            OFFSET 6.06036 -0.000579998 0.00836775
            CHANNELS 3 Zrotation Xrotation Yrotation
            JOINT Bip001_L_UpperArm
            {
              OFFSET 11.5509 -0.0600302 0.00193952
              CHANNELS 3 Zrotation Xrotation Yrotation
              JOINT Bip001_L_Forearm
              {
                OFFSET 25.9523 0.0806089 -2.15551
                CHANNELS 3 Zrotation Xrotation Yrotation
                JOINT Bip001_L_Hand
                {
                  OFFSET 32.2476 0.153767 1.63968
                  CHANNELS 3 Zrotation Xrotation Yrotation
                  JOINT Bip001_L_Finger0
                  {
                    OFFSET 6.04639 -2.20976 5.90322
                    CHANNELS 3 Zrotation Xrotation Yrotation
                    End Site
                    {
                      OFFSET 4.22376 -1.43895 0.606486
                    }
                  }
                  JOINT Bip001_L_Finger1
                  {
                    OFFSET 11.0826 -0.704819 -0.198153
                    CHANNELS 3 Zrotation Xrotation Yrotation
                    End Site
                    {
                      OFFSET 6.20028 -0.397518 -0.0787166
                    }
                  }
                }
              }
            }
          }
          JOINT Bip001_R_Clavicle
          {
            OFFSET -6.06036 -0.000563197 0.00835105
            CHANNELS 3 Zrotation Xrotation Yrotation
            JOINT Bip001_R_UpperArm
            {
              OFFSET -11.5509 -0.0599978 0.00190698
              CHANNELS 3 Zrotation Xrotation Yrotation
              JOINT Bip001_R_Forearm
              {
                OFFSET -25.9523 0.080682 -2.1559
                CHANNELS 3 Zrotation Xrotation Yrotation
                JOINT Bip001_R_Hand
                {
                  OFFSET -32.2476 0.153858 1.63991
                  CHANNELS 3 Zrotation Xrotation Yrotation
                  JOINT Bip001_R_Finger0
                  {
                    OFFSET -6.04641 -2.20974 5.90321
                    CHANNELS 3 Zrotation Xrotation Yrotation
                    End Site
                    {
                      OFFSET -4.22376 -1.43894 0.606474
                    }
                  }
                  JOINT Bip001_R_Finger1
                  {
                    OFFSET -11.0826 -0.704789 -0.198184
                    CHANNELS 3 Zrotation Xrotation Yrotation
                    End Site
                    {
                      OFFSET -6.20028 -0.397501 -0.0787338
                    }
                  }
                }
              }
            }
          }
          JOINT Bip001_Head
          {
            OFFSET 1.09673e-005 11.2744 2.05948
            CHANNELS 3 Zrotation Xrotation Yrotation
            End Site
            {
              OFFSET 2.89576e-005 20.8808 -2.77728e-005
            }
          }
        }
      }
    }
  }
}
MOTION
Frames:	5
Frame Time:	0.04
31.179 95.8524 -28.4012 0.717908 -1.06564 6.17847 -0.148843 2.80121 0.423495 6.32159 -4.28837 6.2457 -1.12067 8.00587 -15.5326 2.09719 -3.13685 -0.0321816 -3.76568 -2.96087 5.39346 -1.88491 -2.15408 -7.21259 -1.15748 10.3681 0.285305 -5.74017 -10.5331 2.56772 1.99611 -7.12517 2.49919 -0.319142 5.60129 0.854474 -0.319094 5.60131 0.854701 1.94828 1.91472 -3.26389 -26.2412 -0.38145 -3.50008 -47.992 37.7511 -2.3181 11.645 -1.26203 -27.3968 8.02991 1.32102 -2.13329 4.77083e-015 -9.54166e-015 -0 4.77083e-015 -3.18056e-015 3.18055e-015 20.1879 6.82959 25.7906 45.7661 0.687781 39.4784 -43.8091 -0.304596 88.6371 -59.6652 7.8937 13.6583 1.59028e-015 -6.36111e-015 1.59028e-015 3.53113e-031 -6.36111e-015 3.18055e-015 -2.91282 13.8955 -1.56508 
31.0899 95.837 -28.3543 0.634482 -1.08273 6.66045 -0.121224 2.79926 0.425249 6.5375 -4.47421 6.25876 -1.21235 8.29089 -15.9071 1.9062 -3.40732 -0.0318648 -3.82024 -2.78565 5.42443 -1.64699 -2.02275 -7.70946 -1.36915 10.2999 0.316218 -5.78718 -10.5305 2.56342 2.02694 -7.21437 2.52227 -0.263555 5.59106 0.858796 -0.263654 5.59106 0.858361 1.82638 2.02303 -3.21512 -26.2212 -0.512981 -3.37638 -47.6332 37.7148 -2.89197 11.6045 -1.36376 -27.6462 8.12347 1.31782 -2.2103 -1.59028e-015 -6.36111e-015 3.18055e-015 1.59028e-015 -6.36111e-015 3.18055e-015 19.1978 6.73723 27.0112 45.3102 1.15485 41.4906 -45.1513 -0.60359 88.3942 -62.8452 8.42875 13.3671 7.95139e-016 0 1.59028e-015 1.59028e-015 0 -0 -2.81012 13.777 -1.59556 
31.0219 95.8188 -28.3027 0.628469 -1.09151 7.10722 -0.111608 2.7981 0.4621 6.6531 -4.60871 6.31331 -1.31955 8.4423 -16.4769 2.17316 -3.23905 -0.034214 -3.67205 -2.96919 5.29467 -1.50921 -1.96184 -8.26555 -1.55562 10.3646 0.363466 -5.81916 -10.5948 2.57242 2.0379 -7.25708 2.54315 -0.247604 5.59085 0.931409 -0.247604 5.59085 0.931405 1.75411 2.13604 -3.25578 -26.1973 -0.657558 -3.28861 -47.3749 37.7042 -3.44484 11.5754 -1.32852 -27.7102 8.14168 1.27154 -2.32879 7.95139e-015 0 -3.18055e-015 6.36111e-015 6.36111e-015 -0 18.0789 6.55571 28.1115 43.4816 3.25447 43.1679 -46.6843 -1.01014 85.2367 -67.5634 8.66319 13.122 -1.59028e-015 -6.36111e-015 -0 -3.97569e-016 -6.36111e-015 -7.95139e-016 -2.70819 13.669 -1.6982 
30.9443 95.8064 -28.2627 0.576956 -1.09683 7.54923 -0.0918468 2.80357 0.54119 6.83424 -4.79256 6.03777 -1.45042 8.65403 -16.5694 1.86912 -3.57585 -0.0219576 -3.85408 -2.70277 5.46081 -1.34138 -1.86767 -8.78036 -1.69061 10.3036 0.4453 -5.88598 -10.6102 2.49227 2.0586 -7.29808 2.52977 -0.211077 5.60634 1.09019 -0.210777 5.60635 1.08952 2.01917 2.20995 -3.55628 -26.4843 -0.833425 -3.1737 -47.1107 37.6364 -3.8688 11.3635 -1.34835 -27.8729 8.21961 1.27089 -2.33282 -1.59028e-015 6.36111e-015 -6.36111e-015 0 0 -3.18055e-015 16.4751 6.33945 29.1827 41.1442 5.89047 44.9115 -48.1587 -0.753305 80.449 -70.2939 8.25977 12.8849 -5.96354e-016 0 -1.59028e-015 -1.39149e-015 -9.54167e-015 -7.95139e-016 -3.0265 13.4991 -1.8003 
30.8635 95.7886 -28.2161 0.460337 -1.1243 7.88623 -0.0634068 2.81953 0.554198 7.04472 -5.00338 6.13738 -1.52084 8.97165 -17.0187 2.00621 -3.61441 -0.0183532 -3.77697 -2.81649 5.33159 -1.08991 -1.77587 -9.12421 -1.87038 10.2192 0.459837 -5.93209 -10.577 2.48359 2.07249 -7.34715 2.55436 -0.154024 5.63831 1.11219 -0.15429 5.63831 1.11288 1.60662 2.09415 -3.38765 -26.1356 -0.774299 -2.80597 -47.0554 37.7007 -4.18528 11.3697 -1.30423 -27.8917 8.34469 1.40016 -2.26136 -1.59028e-015 3.18055e-015 -0 1.59028e-015 6.36111e-015 -0 15.7088 6.40575 30.4668 37.9439 8.27259 46.5003 -49.2164 -0.128123 74.7407 -69.5044 8.92381 12.8644 7.95139e-016 0 3.97569e-016 3.97569e-016 0 1.19271e-015 -2.67707 13.6672 -1.87351 
